<?xml version="1.0" encoding="UTF-8"?>
<svg id="Ebene_2" data-name="Ebene 2" xmlns="http://www.w3.org/2000/svg" viewBox="0 0 149.76 37.23">
    <defs>
        <style>
            .cls-1 {
            fill: #e53935;
            }

            .cls-1, .cls-2 {
            stroke-width: 0px;
            }

            .cls-2 {
            fill: #fff;
            }

            .cls-3 {
            fill: none;
            stroke: #fff;
            stroke-linecap: round;
            stroke-linejoin: round;
            stroke-width: 3px;
            }
        </style>
    </defs>
    <g id="Ebene_1-2" data-name="Ebene 1">
        <path class="cls-1" d="m23.15,17.39l-8.06,19.51h-7.06L0,17.39h7.02l4.68,11.91,4.93-11.91h6.52Z"/>
        <path class="cls-1"
              d="m44.21,28.88h-14.18c.58,1.98,2.27,3.13,4.79,3.13,1.91,0,3.17-.54,4.5-1.69l3.6,3.74c-1.87,2.09-4.61,3.17-8.31,3.17-6.95,0-11.45-4.28-11.45-10.11s4.57-10.04,10.73-10.04c5.76,0,10.44,3.67,10.44,10.11,0,.5-.07,1.15-.11,1.69Zm-14.29-3.6h7.99c-.36-2.05-1.87-3.35-4-3.35s-3.6,1.3-4,3.35Z"/>
        <path class="cls-1"
              d="m60.55,17.07v6.16c-.61-.07-1.04-.11-1.55-.11-2.77,0-4.68,1.4-4.68,4.82v8.96h-6.84v-19.51h6.52v2.34c1.4-1.76,3.67-2.66,6.55-2.66Z"/>
        <rect class="cls-1" x="63.36" y="17.39" width="6.84" height="19.51"/>
        <path class="cls-2"
              d="m81.83,10.05c1.37,0,2.81.4,3.71,1.22l-.72,1.37c-.76-.68-1.8-1.04-2.92-1.04-2.34,0-3.53,1.3-3.53,3.78v2.74h6.01v1.55h-5.98v17.24h-1.8v-17.24h-3.46v-1.55h3.46v-2.88c0-3.13,1.87-5.18,5.22-5.18Zm8.03.14v26.71h-1.8V10.19h1.8Z"/>
        <path class="cls-2"
              d="m113.32,27.94h-16.16c.18,4.46,3.46,7.49,7.96,7.49,2.38,0,4.57-.86,6.01-2.63l1.04,1.19c-1.66,2.02-4.25,3.06-7.09,3.06-5.69,0-9.68-3.96-9.68-9.54s3.85-9.54,9-9.54,8.96,3.89,8.96,9.47c0,.14-.04.32-.04.5Zm-16.13-1.4h14.4c-.25-4.07-3.2-6.98-7.2-6.98s-6.91,2.88-7.2,6.98Z"/>
        <path class="cls-2"
              d="m134.82,27.94h-16.16c.18,4.46,3.46,7.49,7.96,7.49,2.38,0,4.57-.86,6.01-2.63l1.04,1.19c-1.66,2.02-4.25,3.06-7.09,3.06-5.69,0-9.68-3.96-9.68-9.54s3.85-9.54,9-9.54,8.96,3.89,8.96,9.47c0,.14-.04.32-.04.5Zm-16.13-1.4h14.4c-.25-4.07-3.2-6.98-7.2-6.98s-6.91,2.88-7.2,6.98Z"/>
        <path class="cls-2"
              d="m149.76,35.71c-.94.9-2.45,1.33-3.85,1.33-3.31,0-5.11-1.94-5.11-5.11v-12.27h-3.46v-1.55h3.46v-4.1h1.8v4.1h5.98v1.55h-5.98v12.09c0,2.41,1.19,3.74,3.49,3.74,1.12,0,2.16-.36,2.92-1.04l.76,1.26Z"/>
        <path class="cls-3" d="m62.08,7.22l4.64,4.64,10.36-10.36"/>
    </g>
</svg>